# xmcd
#
# Track frame offsets: 
#        150
#        21732
#        39218
#        58274
#        82279
#        95940
#        113563
#        129889
#        144603
#
# Disc length: 2117 seconds
#
# Revision: 0
# Processed by: cddbd v1.5.2PL0 Copyright (c) Steve Scherf et al.
# Submitted via: ExactAudioCopy v0.95b4
#
DISCID=81084309
DTITLE=The Judds - Love Can Build a Bridge
DYEAR=1990
DGENRE=
TTITLE0=Born to be Blue
TTITLE1=Calling in the Wind
TTITLE2=Rompin' Stompin' Blues
TTITLE3=Love Can Build a Bridge
TTITLE4=This Country's Rockin'
TTITLE5=One Hundred and Two
TTITLE6=In My Dreams
TTITLE7=Talk About Love
TTITLE8=Are the Roses Not Blooming
EXTD=
EXTT0=
EXTT1=
EXTT2=
EXTT3=
EXTT4=
EXTT5=
EXTT6=
EXTT7=
EXTT8=
PLAYORDER=
